<svg width="160" height="94" viewBox="0 0 160 94" fill="none" xmlns="http://www.w3.org/2000/svg">
<rect width="160" height="94" fill="#EEEFEE"/>
<mask id="path-2-inside-1" fill="white">
<rect width="121.021" height="72.0365" rx="2"/>
</mask>
<rect width="121.021" height="72.0365" rx="2" stroke="#222020" stroke-width="8" mask="url(#path-2-inside-1)"/>
<path fill-rule="evenodd" clip-rule="evenodd" d="M2 90.2857C0.895431 90.2857 0 89.3902 0 88.2857V78.8389C0 77.7343 0.895433 76.8389 2 76.8389H119.021C120.126 76.8389 121.021 77.7343 121.021 78.8389V88.2857C121.021 89.3902 120.126 90.2857 119.021 90.2857H2ZM66.4603 79H55.1746V87.7778H66.4603V79Z" fill="#222020"/>
<path fill-rule="evenodd" clip-rule="evenodd" d="M61.5439 17.1615C61.2749 16.9059 60.9111 16.749 60.5107 16.749C59.6823 16.749 59.0107 17.4206 59.0107 18.249V31.92L50.9369 24.8074L48.9539 27.0585L58.579 35.5378L48.9539 44.0171L50.9369 46.2682L59.0107 39.1556V52.8265C59.0107 53.655 59.6823 54.3265 60.5107 54.3265C60.9111 54.3265 61.2749 54.1697 61.5439 53.914L61.5439 53.914L71.1487 44.7894L72.3374 43.6602L71.1072 42.5764L63.1174 35.5378L71.1072 28.4992L72.3374 27.4154L71.1487 26.2861L61.5439 17.1615L61.5439 17.1615ZM62.0107 21.743V32.5146L67.8938 27.3319L62.0107 21.743ZM62.0107 38.5609V49.3326L67.8938 43.7437L62.0107 38.5609Z" fill="#222020"/>
<path fill-rule="evenodd" clip-rule="evenodd" d="M157.668 38.3047V34.3831C157.668 30.1863 155.099 28.8418 152.267 28.8418H132.384C129.552 28.8418 126.983 30.1863 126.983 34.3831V44.0151H126.651V50.8263H126.983V85.4327C126.983 89.3465 129.552 90.9741 132.384 90.9741H152.267C155.532 90.9741 157.668 89.3465 157.668 85.4327V52.1335H158V48.0055H157.668V46.7671H158V42.6391H157.668V40.6439H158V38.3047H157.668ZM139.266 33.0758C139.028 33.0758 138.834 32.8756 138.834 32.6286C138.834 32.3817 139.028 32.1814 139.266 32.1814C139.505 32.1814 139.699 32.3817 139.699 32.6286C139.699 32.8756 139.505 33.0758 139.266 33.0758ZM143.688 32.388C143.835 32.388 143.954 32.5113 143.954 32.6632C143.954 32.8152 143.835 32.9384 143.688 32.9384H140.962C140.815 32.9384 140.696 32.8152 140.696 32.6632C140.696 32.5113 140.815 32.388 140.962 32.388H143.688ZM152.647 31.9241C153.803 31.9509 154.727 32.9285 154.727 34.1251L154.727 85.6392C154.727 86.8551 153.775 87.8408 152.599 87.8408H131.919C130.744 87.8408 129.791 86.8551 129.791 85.6392V34.1257C129.791 32.9288 130.715 31.9512 131.872 31.9246C133.436 31.8886 134.471 31.8706 134.976 31.8706C136.029 31.8706 134.8 33.8328 136.899 33.8328C137.979 33.8328 145.21 33.8276 147.497 33.8328C149.784 33.838 148.492 31.8706 149.57 31.8706C150.084 31.8706 151.11 31.8884 152.647 31.9241Z" fill="#222020"/>
<rect x="-0.116369" y="0.116369" width="0.232739" height="0.248863" transform="matrix(-1 0 0 1 156.09 83.4375)" stroke="#222020" stroke-width="0.232739"/>
<rect x="-0.116369" y="0.116369" width="0.232739" height="0.248863" transform="matrix(-1 0 0 1 128.56 83.4375)" stroke="#222020" stroke-width="0.232739"/>
<path fill-rule="evenodd" clip-rule="evenodd" d="M142.358 45.4805C142.087 45.2167 141.718 45.0542 141.31 45.0542C140.482 45.0542 139.81 45.7258 139.81 46.5542V57.2425L133.591 51.7636L131.608 54.0146L139.319 60.808L131.608 67.6014L133.591 69.8525L139.81 64.3735V75.062C139.81 75.8904 140.482 76.562 141.31 76.562C141.721 76.562 142.092 76.3974 142.363 76.1306L150.262 68.6265L151.451 67.4972L150.221 66.4134L143.858 60.808L150.221 55.2026L151.451 54.1188L150.262 52.9896L142.358 45.4805ZM142.81 50.0483V57.7326L147.007 54.0354L142.81 50.0483ZM142.81 63.8835V71.5677L147.007 67.5807L142.81 63.8835Z" fill="#222020"/>
</svg>
