<svg width="95" height="94" viewBox="0 0 95 94" fill="none" xmlns="http://www.w3.org/2000/svg">
<rect width="95" height="94" fill="#EEEFEE"/>
<path d="M77.3 54.7V77.7999C77.3 80.5999 75.0001 82.8999 72.2001 82.8999H52.8C50 82.8999 47.7001 80.5999 47.7001 77.7999V16.1C47.7001 13.3 45.4001 11 42.6001 11H23.2001C20.4001 11 18.1001 13.3 18.1001 16.1V38.5" stroke="#222020" stroke-width="7"/>
<path d="M33 69.9965V45H3V69.8995C3 70.4504 3.44561 70.8975 3.99653 70.8995L31.9965 70.9965C32.5502 70.9984 33 70.5502 33 69.9965Z" stroke="#222020" stroke-width="2" stroke-miterlimit="22.9256"/>
<path d="M30 82V71.1896C30 71.0948 29.7132 71 29.4263 71H6.57368C6.28683 71 6 71.0948 6 71.1896V82H30Z" stroke="#222020" stroke-width="2" stroke-miterlimit="22.9256"/>
<path d="M14 38H22C22.5523 38 23 38.4477 23 39V45H13L13 39C13 38.4477 13.4477 38 14 38Z" stroke="#222020" stroke-width="2" stroke-miterlimit="22.9256"/>
<path fill-rule="evenodd" clip-rule="evenodd" d="M13.4999 56.6001H17.7999V58.6001H14.9999V57.3H13.4999V59.6001C14.0999 59.6001 18.2 59.6 18.6 59.5C19.6 59.2 19.2999 57.9001 19.2999 56.7001C19.2999 56.2001 19 55.8001 18.6 55.7001C18.2 55.6001 13.9999 55.6001 13.4999 55.6001V56.6001ZM27.8999 59.5H29.3999V55.6001H27.7999L27.8999 59.5ZM19.8999 59.5H21.3999V56.6001H22.7999V59.6001H24.2999V56.6001H25.7V59.6001H27.2C27.2 58.7001 27.2 57.7 27.2 56.8C27.2 55.5 26.1999 55.6001 25.4999 55.6001C23.5999 55.6001 21.7999 55.6001 19.8999 55.6001V59.5ZM7.09998 59.5H8.59998V58.1001H11.2999V59.5H12.8999V55.6001H11.2999V57.2001H8.59998V55.6001H7.09998V59.5Z" fill="#222020"/>
<path d="M92 23.0035V48H62V23.1005C62 22.5496 62.4456 22.1025 62.9965 22.1005L90.9965 22.0035C91.5502 22.0016 92 22.4498 92 23.0035Z" stroke="#222020" stroke-width="2" stroke-miterlimit="22.9256"/>
<path d="M89 11V21.8104C89 21.9052 88.7132 22 88.4263 22H65.5737C65.2868 22 65 21.9052 65 21.8104V11H89Z" stroke="#222020" stroke-width="2" stroke-miterlimit="22.9256"/>
<path d="M73 55H81C81.5523 55 82 54.5523 82 54V48H72L72 54C72 54.5523 72.4477 55 73 55Z" stroke="#222020" stroke-width="2" stroke-miterlimit="22.9256"/>
<path fill-rule="evenodd" clip-rule="evenodd" d="M72.4999 34.4019H76.7999V36.4019H73.9999V35.1018H72.4999V37.4019C73.0999 37.4019 77.2 37.4018 77.6 37.3018C78.6 37.0018 78.2999 35.7018 78.2999 34.5018C78.2999 34.0018 78 33.6018 77.6 33.5018C77.2 33.4018 72.9999 33.4019 72.4999 33.4019V34.4019ZM86.8999 37.3018H88.3999V33.4019H86.7999L86.8999 37.3018ZM78.8999 37.3018H80.3999V34.4019H81.7999V37.4019H83.2999V34.4019H84.7V37.4019H86.2C86.2 36.5019 86.2 35.5018 86.2 34.6018C86.2 33.3018 85.1999 33.4019 84.4999 33.4019C82.5999 33.4019 80.7999 33.4019 78.8999 33.4019V37.3018ZM66.1 37.3018H67.6V35.9019H70.2999V37.3018H71.8999V33.4019H70.2999V35.0018H67.6V33.4019H66.1V37.3018Z" fill="#222020"/>
</svg>
