<svg width="176" height="147" viewBox="0 0 176 147" fill="none" xmlns="http://www.w3.org/2000/svg">
<path d="M59.7714 90.2V86.1429C58.8441 86.1429 57.9448 86.4605 57.2232 87.043L59.7714 90.2ZM32.3857 84.5009L30.7211 88.2008L32.3857 84.5009ZM27.3143 100.343L24.6189 97.3105C23.5197 98.2875 23.0353 99.7828 23.3528 101.219C23.6703 102.655 24.7399 103.806 26.1485 104.229L27.3143 100.343ZM110.486 47.6C110.486 67.9968 88.7881 86.1429 59.7714 86.1429V94.2571C91.2536 94.2571 118.6 74.2579 118.6 47.6H110.486ZM9.05714 47.6C9.05714 27.2032 30.7547 9.05714 59.7714 9.05714V0.942857C28.2893 0.942857 0.942857 20.9422 0.942857 47.6H9.05714ZM59.7714 9.05714C88.7881 9.05714 110.486 27.2032 110.486 47.6H118.6C118.6 20.9422 91.2536 0.942857 59.7714 0.942857V9.05714ZM34.0504 80.801C18.6726 73.8822 9.05714 61.3194 9.05714 47.6H0.942857C0.942857 65.4166 13.3564 80.3881 30.7211 88.2008L34.0504 80.801ZM57.2232 87.043C46.4531 95.7363 36.7036 98.9239 28.4801 96.4568L26.1485 104.229C38.2107 107.848 50.7755 102.675 62.3197 93.357L57.2232 87.043ZM30.0097 103.375C34.8562 99.0672 37.792 94.829 38.6581 90.8903C39.1035 88.8646 39.0225 86.7849 38.1823 84.9019C37.3287 82.989 35.8323 81.6027 34.0504 80.801L30.7211 88.2008C30.7938 88.2335 30.8096 88.254 30.798 88.2428C30.7933 88.2382 30.7868 88.2308 30.7804 88.2217C30.774 88.2126 30.7716 88.207 30.7722 88.2083C30.7728 88.2097 30.7788 88.2232 30.7859 88.2529C30.7932 88.2828 30.8025 88.3324 30.8075 88.4051C30.8177 88.5512 30.8108 88.7944 30.7331 89.1477C30.3974 90.6747 28.901 93.5042 24.6189 97.3105L30.0097 103.375Z" fill="#007BFF"/>
<path d="M61.7999 90.4271C61.7999 115.2 87.2301 135.283 118.6 135.283C130.17 144.765 141.741 149.167 152.259 145.963C142.792 137.419 143.066 131.079 147 129.282C163.977 121.526 175.4 107.03 175.4 90.4271C175.4 65.654 149.97 45.5714 118.6 45.5714C87.2301 45.5714 61.7999 65.654 61.7999 90.4271Z" fill="#007BFF"/>
</svg>
