<svg width="127" height="38" viewBox="0 0 127 38" fill="none" xmlns="http://www.w3.org/2000/svg">
<path fill-rule="evenodd" clip-rule="evenodd" d="M56.2816 0.164826C58.8292 0.854021 60.3684 3.45176 59.7315 5.99648C59.413 7.21582 58.67 8.17009 57.6615 8.80627C57.7677 8.59421 57.8738 8.38215 58.0861 8.17009C58.723 7.42788 53.9463 9.01833 55.167 9.28341C55.4324 9.33642 55.6447 9.44245 55.857 9.49547C55.2201 9.6015 54.5301 9.6015 53.8401 9.38944C51.2925 8.70024 49.7534 6.10251 50.3903 3.55779C51.0802 1.01307 53.734 -0.524369 56.2816 0.164826ZM41.5267 14.3728C41.3675 14.2668 41.2083 14.1078 41.0491 13.9487C41.2614 13.8427 41.4206 13.7367 41.5798 13.5246C42.0575 12.9414 41.8983 12.0402 41.3144 11.6161C40.996 11.351 40.5714 11.298 40.1999 11.351C40.2529 10.7148 40.4653 10.1316 40.8899 9.6015C42.0575 8.11708 44.1805 7.79899 45.7197 8.9123C47.2058 10.0786 47.5242 12.1992 46.4096 13.7367C46.3566 13.7897 46.3035 13.8957 46.2504 13.9487C46.2504 13.8957 46.2504 13.8427 46.3035 13.7897C46.5158 13.0475 43.119 14.4259 44.3397 14.956C44.3397 14.956 44.3928 14.956 44.3928 15.009C43.3313 15.2211 42.3229 15.009 41.5267 14.3728ZM48.4796 28.4218C49.0103 28.3688 49.488 28.3688 49.9657 28.4748C49.7003 28.7929 49.3288 29.164 48.9572 29.4821C48.6388 29.7472 49.2226 30.2774 49.9126 30.4894C50.6026 30.7015 51.4518 30.5954 51.2925 30.2774C51.0272 29.7472 50.9741 29.2171 51.0272 28.7929C52.5133 29.4291 53.6278 30.8605 53.8401 32.61C54.1586 35.2608 52.301 37.6464 49.6472 37.9645C46.9935 38.2826 44.6051 36.4271 44.2866 33.7763C43.9682 31.1256 45.8258 28.7399 48.4796 28.4218ZM72.151 28.5279C74.6455 28.5279 76.6624 30.5424 76.6624 33.0341C76.6624 35.5258 74.6455 37.5404 72.151 37.5404C69.6565 37.5404 67.6396 35.5258 67.6396 33.0341C67.6396 32.7691 67.6396 32.504 67.6927 32.2389C67.905 32.451 68.0642 32.663 68.3296 32.8751C69.0727 33.6173 70.1342 29.7472 69.2319 30.3304C68.9134 30.5424 68.595 30.6485 68.2765 30.7015C69.0727 29.3761 70.5057 28.5279 72.151 28.5279ZM74.6455 7.10979C76.6624 6.7917 78.5731 8.17009 78.8915 10.1847C79.21 12.1992 77.83 14.1078 75.8132 14.4259C73.7963 14.744 71.9387 13.4186 71.5672 11.404C71.6733 11.51 71.7264 11.6161 71.7795 11.7221C72.4695 13.0475 72.8941 7.95803 72.0449 9.01833C71.9918 9.07135 71.9387 9.17738 71.8326 9.23039C72.3102 8.17009 73.3717 7.32185 74.6455 7.10979Z" fill="#222020"/>
<path fill-rule="evenodd" clip-rule="evenodd" d="M56.2816 0.164826C58.8292 0.854021 60.3684 3.45176 59.7315 5.99648C59.413 7.21582 58.67 8.17009 57.6615 8.80627C57.7677 8.59421 57.8738 8.38215 58.0861 8.17009C58.723 7.42788 53.9463 9.01833 55.167 9.28341C55.4324 9.33642 55.6447 9.44245 55.857 9.49547C55.2201 9.6015 54.5301 9.6015 53.8401 9.38944C51.2925 8.70024 49.7534 6.10251 50.3903 3.55779C51.0802 1.01307 53.734 -0.524369 56.2816 0.164826ZM41.5267 14.3728C41.3675 14.2668 41.2083 14.1078 41.0491 13.9487C41.2614 13.8427 41.4206 13.7367 41.5798 13.5246C42.0575 12.9414 41.8983 12.0402 41.3144 11.6161C40.996 11.351 40.5714 11.298 40.1999 11.351C40.2529 10.7148 40.4653 10.1316 40.8899 9.6015C42.0575 8.11708 44.1805 7.79899 45.7197 8.9123C47.2058 10.0786 47.5242 12.1992 46.4096 13.7367C46.3566 13.7897 46.3035 13.8957 46.2504 13.9487C46.2504 13.8957 46.2504 13.8427 46.3035 13.7897C46.5158 13.0475 43.119 14.4259 44.3397 14.956C44.3397 14.956 44.3928 14.956 44.3928 15.009C43.3313 15.2211 42.3229 15.009 41.5267 14.3728ZM48.4796 28.4218C49.0103 28.3688 49.488 28.3688 49.9657 28.4748C49.7003 28.7929 49.3288 29.164 48.9572 29.4821C48.6388 29.7472 49.2226 30.2774 49.9126 30.4894C50.6026 30.7015 51.4518 30.5954 51.2925 30.2774C51.0272 29.7472 50.9741 29.2171 51.0272 28.7929C52.5133 29.4291 53.6278 30.8605 53.8401 32.61C54.1586 35.2608 52.301 37.6464 49.6472 37.9645C46.9935 38.2826 44.6051 36.4271 44.2866 33.7763C43.9682 31.1256 45.8258 28.7399 48.4796 28.4218ZM72.151 28.5279C74.6455 28.5279 76.6624 30.5424 76.6624 33.0341C76.6624 35.5258 74.6455 37.5404 72.151 37.5404C69.6565 37.5404 67.6396 35.5258 67.6396 33.0341C67.6396 32.7691 67.6396 32.504 67.6927 32.2389C67.905 32.451 68.0642 32.663 68.3296 32.8751C69.0727 33.6173 70.1342 29.7472 69.2319 30.3304C68.9134 30.5424 68.595 30.6485 68.2765 30.7015C69.0727 29.3761 70.5057 28.5279 72.151 28.5279ZM74.6455 7.10979C76.6624 6.7917 78.5731 8.17009 78.8915 10.1847C79.21 12.1992 77.83 14.1078 75.8132 14.4259C73.7963 14.744 71.9387 13.4186 71.5672 11.404C71.6733 11.51 71.7264 11.6161 71.7795 11.7221C72.4695 13.0475 72.8941 7.95803 72.0449 9.01833C71.9918 9.07135 71.9387 9.17738 71.8326 9.23039C72.3102 8.17009 73.3717 7.32185 74.6455 7.10979Z" fill="#F5C753"/>
<path fill-rule="evenodd" clip-rule="evenodd" d="M46.3033 8.43545C46.9932 7.69324 48.214 7.58721 49.0632 8.22339C49.9654 8.91259 50.1777 10.1849 49.4878 11.1392C49.0101 11.8284 48.1609 12.0935 47.4178 11.9344C47.8955 10.7681 47.524 9.33671 46.4625 8.54148C46.3563 8.48847 46.3033 8.43545 46.3033 8.43545ZM47.6301 17.7661C48.267 17.7661 48.8509 18.0312 49.2755 18.4553C50.2308 19.1975 52.8315 18.3493 53.0438 17.395C53.0438 17.342 53.0438 17.342 53.0438 17.342C53.4684 15.2744 54.7953 13.5249 56.5467 12.5706C57.0775 11.6694 57.1306 9.76083 55.1668 9.33671C53.9461 9.07163 58.7228 7.48118 58.0859 8.22339C56.8121 9.60178 58.0328 11.4043 59.1474 11.7224C59.4128 11.6694 59.6782 11.6694 59.9435 11.6694C61.2173 11.6694 62.4381 12.0405 63.4996 12.6236C64.3488 12.5176 65.4102 11.5633 65.5164 10.6091C65.4102 10.397 65.3572 10.238 65.3572 9.97289C65.251 8.9656 65.941 8.06435 67.0025 7.9053C67.9048 7.79927 68.7009 8.32942 68.9663 9.12465C69.6562 9.91987 71.4608 9.86686 72.0977 9.07163C72.9469 7.95832 72.5223 13.1008 71.8323 11.7754C71.4077 10.9802 69.9747 9.86686 68.9132 10.45C68.6478 11.0332 68.1171 11.5103 67.4271 11.6164C67.1617 11.6694 66.9494 11.6164 66.6841 11.5633C65.8879 11.5633 64.9326 12.6236 64.7203 13.4719C66.1533 14.7442 67.0556 16.5998 67.0556 18.6674C67.0556 21.4241 65.5164 23.7568 63.2342 24.9231C62.9157 25.7183 63.2873 26.5666 64.5611 26.9907C65.7287 27.1498 66.5248 28.157 66.4187 29.3234C66.7371 30.9138 68.2763 30.9668 69.3909 30.2776C70.2931 29.6945 69.2317 33.5646 68.4886 32.8224C67.1087 31.444 66.4187 30.3837 65.5164 30.8608C65.0918 31.1259 64.6141 31.2849 64.0834 31.2319C62.9157 31.1259 62.0665 30.0656 62.1727 28.8992C62.2258 28.5281 62.3319 28.2101 62.4911 27.945C62.7034 27.4678 62.9157 25.9304 61.8012 25.4533C61.2704 25.6123 60.6866 25.6653 60.0497 25.6653C58.0328 25.6653 56.1752 24.8171 54.9014 23.4387C54.4768 23.6508 54.1053 24.1809 54.2114 25.0292C54.2645 25.1352 54.2645 25.2412 54.2645 25.3472C54.4237 26.5666 53.5745 27.6269 52.3538 27.7859C52.1415 27.8389 51.8761 27.7859 51.6638 27.7859C51.0269 28.157 50.8677 29.1113 51.3454 30.2776C51.5046 30.6487 50.6554 30.7548 49.9654 30.4897C49.2755 30.2776 48.7447 29.7475 49.0101 29.4824C49.9654 28.6872 50.6554 27.8389 50.5493 27.2558C50.1777 26.9377 49.9124 26.4606 49.8593 25.9304C49.7001 24.7111 50.5493 23.6508 51.77 23.4917C52.0354 23.4387 52.2477 23.4917 52.513 23.5447H52.5661C53.5215 23.7038 53.9991 23.3857 54.2645 22.7495C53.5745 21.7422 53.0969 20.5759 52.9907 19.3035C52.0354 18.9324 50.0716 19.3565 49.7531 20.4699C49.7531 20.5229 49.7531 20.5229 49.7001 20.5229C49.4347 21.2651 48.7978 21.8483 47.9486 21.9543C46.7809 22.1133 45.7725 21.2651 45.6133 20.1518C45.5071 19.4626 45.7725 18.8264 46.1971 18.4023C46.1971 18.4023 46.1971 18.3493 46.2502 18.2962C46.6217 17.8191 45.2418 15.4864 44.2333 15.0093C43.0657 14.4792 46.4094 13.1008 46.1971 13.843C45.9317 14.6912 46.6217 17.395 47.6301 17.7661ZM40.6773 13.4719L39.8281 13.6839C38.9789 13.949 38.5543 12.8357 39.3504 12.4116L40.0935 11.9875C41.155 11.5103 41.7919 13.1538 40.6773 13.4719ZM60.3681 14.7442C62.2788 14.9563 63.7119 16.4937 63.8711 18.2962L58.0328 20.0457C58.4044 20.5759 58.9882 21 59.6782 21.053C60.0497 21.106 60.3681 21.053 60.7397 20.947C61.3766 20.7349 61.9073 20.2578 62.1727 19.6746L62.9157 21.2651C62.7034 21.5302 62.4381 21.7422 62.2258 21.9013C61.4827 22.4314 60.5274 22.6965 59.5189 22.5905C57.3429 22.3784 55.7506 20.4168 56.016 18.2432C56.2283 16.0696 58.1921 14.5322 60.3681 14.7442ZM57.6082 18.6674L61.9604 17.395C61.5889 16.8118 60.952 16.3347 60.2089 16.2817C58.9351 16.1226 57.7675 17.1299 57.6082 18.4553C57.6082 18.5083 57.6082 18.6143 57.6082 18.6674Z" fill="#222020"/>
<path fill-rule="evenodd" clip-rule="evenodd" d="M46.3033 8.43545C46.9932 7.69324 48.214 7.58721 49.0632 8.22339C49.9654 8.91259 50.1777 10.1849 49.4878 11.1392C49.0101 11.8284 48.1609 12.0935 47.4178 11.9344C47.8955 10.7681 47.524 9.33671 46.4625 8.54148C46.3563 8.48847 46.3033 8.43545 46.3033 8.43545ZM47.6301 17.7661C48.267 17.7661 48.8509 18.0312 49.2755 18.4553C50.2308 19.1975 52.8315 18.3493 53.0438 17.395C53.0438 17.342 53.0438 17.342 53.0438 17.342C53.4684 15.2744 54.7953 13.5249 56.5467 12.5706C57.0775 11.6694 57.1306 9.76083 55.1668 9.33671C53.9461 9.07163 58.7228 7.48118 58.0859 8.22339C56.8121 9.60178 58.0328 11.4043 59.1474 11.7224C59.4128 11.6694 59.6782 11.6694 59.9435 11.6694C61.2173 11.6694 62.4381 12.0405 63.4996 12.6236C64.3488 12.5176 65.4102 11.5633 65.5164 10.6091C65.4102 10.397 65.3572 10.238 65.3572 9.97289C65.251 8.9656 65.941 8.06435 67.0025 7.9053C67.9048 7.79927 68.7009 8.32942 68.9663 9.12465C69.6562 9.91987 71.4608 9.86686 72.0977 9.07163C72.9469 7.95832 72.5223 13.1008 71.8323 11.7754C71.4077 10.9802 69.9747 9.86686 68.9132 10.45C68.6478 11.0332 68.1171 11.5103 67.4271 11.6164C67.1617 11.6694 66.9494 11.6164 66.6841 11.5633C65.8879 11.5633 64.9326 12.6236 64.7203 13.4719C66.1533 14.7442 67.0556 16.5998 67.0556 18.6674C67.0556 21.4241 65.5164 23.7568 63.2342 24.9231C62.9157 25.7183 63.2873 26.5666 64.5611 26.9907C65.7287 27.1498 66.5248 28.157 66.4187 29.3234C66.7371 30.9138 68.2763 30.9668 69.3909 30.2776C70.2931 29.6945 69.2317 33.5646 68.4886 32.8224C67.1087 31.444 66.4187 30.3837 65.5164 30.8608C65.0918 31.1259 64.6141 31.2849 64.0834 31.2319C62.9157 31.1259 62.0665 30.0656 62.1727 28.8992C62.2258 28.5281 62.3319 28.2101 62.4911 27.945C62.7034 27.4678 62.9157 25.9304 61.8012 25.4533C61.2704 25.6123 60.6866 25.6653 60.0497 25.6653C58.0328 25.6653 56.1752 24.8171 54.9014 23.4387C54.4768 23.6508 54.1053 24.1809 54.2114 25.0292C54.2645 25.1352 54.2645 25.2412 54.2645 25.3472C54.4237 26.5666 53.5745 27.6269 52.3538 27.7859C52.1415 27.8389 51.8761 27.7859 51.6638 27.7859C51.0269 28.157 50.8677 29.1113 51.3454 30.2776C51.5046 30.6487 50.6554 30.7548 49.9654 30.4897C49.2755 30.2776 48.7447 29.7475 49.0101 29.4824C49.9654 28.6872 50.6554 27.8389 50.5493 27.2558C50.1777 26.9377 49.9124 26.4606 49.8593 25.9304C49.7001 24.7111 50.5493 23.6508 51.77 23.4917C52.0354 23.4387 52.2477 23.4917 52.513 23.5447H52.5661C53.5215 23.7038 53.9991 23.3857 54.2645 22.7495C53.5745 21.7422 53.0969 20.5759 52.9907 19.3035C52.0354 18.9324 50.0716 19.3565 49.7531 20.4699C49.7531 20.5229 49.7531 20.5229 49.7001 20.5229C49.4347 21.2651 48.7978 21.8483 47.9486 21.9543C46.7809 22.1133 45.7725 21.2651 45.6133 20.1518C45.5071 19.4626 45.7725 18.8264 46.1971 18.4023C46.1971 18.4023 46.1971 18.3493 46.2502 18.2962C46.6217 17.8191 45.2418 15.4864 44.2333 15.0093C43.0657 14.4792 46.4094 13.1008 46.1971 13.843C45.9317 14.6912 46.6217 17.395 47.6301 17.7661ZM40.6773 13.4719L39.8281 13.6839C38.9789 13.949 38.5543 12.8357 39.3504 12.4116L40.0935 11.9875C41.155 11.5103 41.7919 13.1538 40.6773 13.4719ZM60.3681 14.7442C62.2788 14.9563 63.7119 16.4937 63.8711 18.2962L58.0328 20.0457C58.4044 20.5759 58.9882 21 59.6782 21.053C60.0497 21.106 60.3681 21.053 60.7397 20.947C61.3766 20.7349 61.9073 20.2578 62.1727 19.6746L62.9157 21.2651C62.7034 21.5302 62.4381 21.7422 62.2258 21.9013C61.4827 22.4314 60.5274 22.6965 59.5189 22.5905C57.3429 22.3784 55.7506 20.4168 56.016 18.2432C56.2283 16.0696 58.1921 14.5322 60.3681 14.7442ZM57.6082 18.6674L61.9604 17.395C61.5889 16.8118 60.952 16.3347 60.2089 16.2817C58.9351 16.1226 57.7675 17.1299 57.6082 18.4553C57.6082 18.5083 57.6082 18.6143 57.6082 18.6674Z" fill="#222020"/>
<path fill-rule="evenodd" clip-rule="evenodd" d="M39.5632 24.4985C40.7309 24.4985 41.6862 24.0743 42.4293 23.2261C43.1723 22.3779 43.5438 21.2645 43.5438 19.9392C43.5438 18.6668 43.1723 17.5535 42.3762 16.7053C41.6862 15.857 40.7309 15.3799 39.5632 15.3799C38.3956 15.3799 37.4402 15.804 36.6972 16.7053C35.9541 17.5535 35.5826 18.6668 35.5826 19.9392C35.5826 21.2645 35.9541 22.3779 36.6972 23.2261C37.4402 24.0743 38.3956 24.4985 39.5632 24.4985ZM71.6205 22.855L68.9137 15.645H71.0898L72.8412 21.4766V21.5296V21.4766L74.5927 15.645H76.7688C75.7073 18.4548 74.6458 21.2645 73.5843 24.1274H71.992L71.6205 22.855ZM85.1016 19.8862C85.1016 20.5223 84.9954 21.0525 84.7831 21.5826C84.5708 22.1128 84.3054 22.5899 83.8808 23.014C83.5093 23.4382 83.0316 23.7563 82.554 23.9683C82.0763 24.1804 81.5455 24.2864 81.0148 24.2864C80.484 24.2864 79.9533 24.1804 79.4756 23.9683C78.9979 23.7563 78.5203 23.4382 78.1487 23.014C77.7772 22.5899 77.4588 22.1128 77.2465 21.5826C77.0342 21.0525 76.928 20.4693 76.928 19.8862C76.928 19.303 77.0342 18.7198 77.2465 18.1897C77.4588 17.6595 77.7241 17.1824 78.1487 16.7583C78.5203 16.3342 78.9449 16.0161 79.4756 15.804C79.9533 15.5919 80.484 15.4859 81.0148 15.4859C81.5455 15.4859 82.0763 15.5919 82.554 15.804C83.0316 16.0161 83.5093 16.3342 83.8808 16.7583C84.6769 17.6065 85.1016 18.7198 85.1016 19.8862ZM81.0148 22.3779C81.5986 22.3779 82.0763 22.1658 82.4478 21.6887C82.8193 21.2115 83.0316 20.6284 83.0316 19.8862C83.0316 18.5608 82.2886 17.3945 81.0678 17.3945C79.7941 17.3945 79.1041 18.5608 79.1041 19.8862C79.1041 20.6284 79.2633 21.2115 79.6348 21.6887C79.9533 22.1658 80.4309 22.3779 81.0148 22.3779ZM86.3754 24.1274V16.6522L88.4453 15.698V22.1658H91.046V24.1274H86.3754ZM119.123 24.1274V15.645H121.139L124.589 21.0525L124.536 15.645H126.5V24.1274H124.536L121.086 18.5608L121.139 24.1274H119.123ZM117.849 19.8862C117.849 20.5223 117.743 21.0525 117.53 21.5826C117.318 22.1128 117.053 22.5899 116.628 23.014C116.257 23.4382 115.779 23.7563 115.301 23.9683C114.824 24.1804 114.293 24.2864 113.762 24.2864C113.231 24.2864 112.701 24.1804 112.223 23.9683C111.745 23.7563 111.268 23.4382 110.896 23.014C110.524 22.5899 110.206 22.1128 109.994 21.5826C109.781 21.0525 109.675 20.4693 109.675 19.8862C109.675 19.303 109.781 18.7198 109.994 18.1897C110.206 17.6595 110.471 17.1824 110.896 16.7583C111.268 16.3342 111.692 16.0161 112.223 15.804C112.701 15.5919 113.231 15.4859 113.762 15.4859C114.293 15.4859 114.824 15.5919 115.301 15.804C115.779 16.0161 116.257 16.3342 116.628 16.7583C117 17.1824 117.318 17.6595 117.477 18.1897C117.743 18.7198 117.849 19.303 117.849 19.8862ZM113.762 22.3779C114.346 22.3779 114.824 22.1658 115.195 21.6887C115.567 21.2115 115.779 20.6284 115.779 19.8862C115.779 19.197 115.567 18.5608 115.195 18.0836C114.824 17.6065 114.346 17.3945 113.762 17.3945C113.178 17.3945 112.701 17.6065 112.329 18.0836C111.957 18.5608 111.745 19.1439 111.745 19.8862C111.745 20.6284 111.904 21.2115 112.276 21.6887C112.701 22.1658 113.178 22.3779 113.762 22.3779ZM106.278 24.1274V16.6522L108.348 15.698V24.1804H106.278V24.1274ZM101.396 24.1274V17.6595H99.6972V15.645H105.164V17.6595H103.465V24.1274H101.396ZM94.0712 15.645V19.7801C94.0712 20.3633 94.0712 20.8404 94.1243 21.1055C94.2304 22.0068 94.5489 22.4309 95.3981 22.4309C96.2473 22.4309 96.5657 22.0068 96.6719 21.1055C96.725 20.8404 96.725 20.4163 96.725 19.7801V19.197V16.5992L98.7418 15.645V20.1512C98.7418 21.1055 98.6887 21.7417 98.5826 22.2188C98.158 23.9683 96.8311 24.3924 95.345 24.3924C93.8589 24.3924 92.5321 23.9683 92.1075 22.2188C92.0013 21.7947 91.9482 21.1055 91.9482 20.1512V19.25V16.6522L94.0712 15.645ZM39.5632 22.4839C40.147 22.4839 40.6247 22.2718 40.9962 21.7947C41.3678 21.3176 41.5801 20.7344 41.5801 19.9922C41.5801 19.303 41.3678 18.6668 40.9962 18.1897C40.6247 17.7125 40.147 17.4475 39.5632 17.4475C38.9794 17.4475 38.5017 17.7125 38.1302 18.1367C37.7587 18.6138 37.5464 19.197 37.5464 19.9392C37.5464 20.6814 37.7056 21.2645 38.1302 21.7417C38.5017 22.2188 38.9794 22.4839 39.5632 22.4839ZM1.34923 21.4236C1.66768 21.7947 1.98613 22.1128 2.2515 22.3248C2.56995 22.5369 2.83533 22.6429 3.15378 22.6429C3.41915 22.6429 3.68453 22.5369 3.84375 22.3779C4.00298 22.1658 4.10913 21.9537 4.10913 21.7417C4.10913 21.4766 4.05605 21.2645 3.89683 21.1055C3.7376 20.9465 3.36608 20.7874 2.83533 20.6284C2.09228 20.4163 1.56153 20.0982 1.24308 19.7271C0.92463 19.356 0.765405 18.8789 0.765405 18.2427C0.765405 17.4475 1.03078 16.7583 1.50846 16.2281C1.98613 15.698 2.62303 15.4329 3.41915 15.4329C3.84375 15.4329 4.21528 15.4859 4.63988 15.645C5.0114 15.751 5.38293 15.963 5.70138 16.2281L5.06448 17.8716C4.85218 17.6595 4.5868 17.5005 4.32143 17.3414C4.05605 17.2354 3.84375 17.1824 3.57838 17.1824C3.313 17.1824 3.1007 17.2354 2.94148 17.3945C2.78225 17.5535 2.72918 17.7125 2.72918 17.9246C2.72918 18.1367 2.78225 18.2957 2.94148 18.4548C3.04763 18.5608 3.313 18.7198 3.7376 18.8259L3.84375 18.8789C4.69295 19.1439 5.27678 19.409 5.54215 19.7271C5.70138 19.9392 5.8606 20.2042 5.96675 20.4693C6.0729 20.7874 6.12598 21.1055 6.12598 21.4236C6.12598 22.3248 5.8606 23.0671 5.32985 23.5972C4.7991 24.1274 4.10913 24.4454 3.20685 24.4454C2.6761 24.4454 2.19843 24.3394 1.77383 24.1274C1.34923 23.9153 0.92463 23.5972 0.500031 23.1731L1.34923 21.4236ZM8.77973 24.1804V17.6595H7.08133V15.645H12.6011V17.6595H10.9027V24.1804H8.77973ZM16.1041 15.698V19.8331C16.1041 20.4163 16.1041 20.8934 16.1571 21.1585C16.2633 22.0598 16.5817 22.4839 17.4309 22.4839C18.2801 22.4839 18.5986 22.0598 18.7047 21.1585C18.7578 20.5754 18.7578 19.8862 18.7578 19.25V16.6522L20.8277 15.698V20.1512C20.8277 21.1055 20.7747 21.7947 20.6685 22.2188C20.2439 23.9683 18.917 24.3924 17.4309 24.3924C15.9448 24.3924 14.618 23.9683 14.1934 22.2188C14.0872 21.7947 14.0342 21.1055 14.0342 20.1512V19.25V16.5992L16.1041 15.698ZM22.8446 24.1804V15.698H24.4368C25.6045 15.698 26.4537 15.751 26.9314 15.91C27.409 16.0161 27.8336 16.2281 28.2052 16.5462C28.6828 16.9173 29.0544 17.3945 29.3197 17.9776C29.5851 18.5608 29.6913 19.25 29.6913 19.9922C29.6913 20.7344 29.5851 21.4236 29.3197 22.0068C29.0544 22.5899 28.6828 23.0671 28.2052 23.4382C27.8336 23.7032 27.409 23.9153 26.9314 24.0743C26.4537 24.1804 25.7106 24.2334 24.7553 24.2334H24.3838L22.8446 24.1804ZM24.9145 22.2718H25.286C26.0822 22.2718 26.7191 22.0598 27.0906 21.6887C27.4621 21.3176 27.6744 20.7344 27.6744 19.8862C27.6744 19.0909 27.4621 18.4548 27.0906 18.0836C26.7191 17.7125 26.1352 17.5005 25.286 17.5005H24.9145V22.2718ZM31.602 24.1804V16.6522L33.725 15.645V24.1274H31.602V24.1804Z" fill="#222020"/>
<path fill-rule="evenodd" clip-rule="evenodd" d="M39.5632 24.4985C40.7309 24.4985 41.6862 24.0743 42.4293 23.2261C43.1723 22.3779 43.5438 21.2645 43.5438 19.9392C43.5438 18.6668 43.1723 17.5535 42.3762 16.7053C41.6862 15.857 40.7309 15.3799 39.5632 15.3799C38.3956 15.3799 37.4402 15.804 36.6972 16.7053C35.9541 17.5535 35.5826 18.6668 35.5826 19.9392C35.5826 21.2645 35.9541 22.3779 36.6972 23.2261C37.4402 24.0743 38.3956 24.4985 39.5632 24.4985ZM71.6205 22.855L68.9137 15.645H71.0898L72.8412 21.4766V21.5296V21.4766L74.5927 15.645H76.7688C75.7073 18.4548 74.6458 21.2645 73.5843 24.1274H71.992L71.6205 22.855ZM85.1016 19.8862C85.1016 20.5223 84.9954 21.0525 84.7831 21.5826C84.5708 22.1128 84.3054 22.5899 83.8808 23.014C83.5093 23.4382 83.0316 23.7563 82.554 23.9683C82.0763 24.1804 81.5455 24.2864 81.0148 24.2864C80.484 24.2864 79.9533 24.1804 79.4756 23.9683C78.9979 23.7563 78.5203 23.4382 78.1487 23.014C77.7772 22.5899 77.4588 22.1128 77.2465 21.5826C77.0342 21.0525 76.928 20.4693 76.928 19.8862C76.928 19.303 77.0342 18.7198 77.2465 18.1897C77.4588 17.6595 77.7241 17.1824 78.1487 16.7583C78.5203 16.3342 78.9449 16.0161 79.4756 15.804C79.9533 15.5919 80.484 15.4859 81.0148 15.4859C81.5455 15.4859 82.0763 15.5919 82.554 15.804C83.0316 16.0161 83.5093 16.3342 83.8808 16.7583C84.6769 17.6065 85.1016 18.7198 85.1016 19.8862ZM81.0148 22.3779C81.5986 22.3779 82.0763 22.1658 82.4478 21.6887C82.8193 21.2115 83.0316 20.6284 83.0316 19.8862C83.0316 18.5608 82.2886 17.3945 81.0678 17.3945C79.7941 17.3945 79.1041 18.5608 79.1041 19.8862C79.1041 20.6284 79.2633 21.2115 79.6348 21.6887C79.9533 22.1658 80.4309 22.3779 81.0148 22.3779ZM86.3754 24.1274V16.6522L88.4453 15.698V22.1658H91.046V24.1274H86.3754ZM119.123 24.1274V15.645H121.139L124.589 21.0525L124.536 15.645H126.5V24.1274H124.536L121.086 18.5608L121.139 24.1274H119.123ZM117.849 19.8862C117.849 20.5223 117.743 21.0525 117.53 21.5826C117.318 22.1128 117.053 22.5899 116.628 23.014C116.257 23.4382 115.779 23.7563 115.301 23.9683C114.824 24.1804 114.293 24.2864 113.762 24.2864C113.231 24.2864 112.701 24.1804 112.223 23.9683C111.745 23.7563 111.268 23.4382 110.896 23.014C110.524 22.5899 110.206 22.1128 109.994 21.5826C109.781 21.0525 109.675 20.4693 109.675 19.8862C109.675 19.303 109.781 18.7198 109.994 18.1897C110.206 17.6595 110.471 17.1824 110.896 16.7583C111.268 16.3342 111.692 16.0161 112.223 15.804C112.701 15.5919 113.231 15.4859 113.762 15.4859C114.293 15.4859 114.824 15.5919 115.301 15.804C115.779 16.0161 116.257 16.3342 116.628 16.7583C117 17.1824 117.318 17.6595 117.477 18.1897C117.743 18.7198 117.849 19.303 117.849 19.8862ZM113.762 22.3779C114.346 22.3779 114.824 22.1658 115.195 21.6887C115.567 21.2115 115.779 20.6284 115.779 19.8862C115.779 19.197 115.567 18.5608 115.195 18.0836C114.824 17.6065 114.346 17.3945 113.762 17.3945C113.178 17.3945 112.701 17.6065 112.329 18.0836C111.957 18.5608 111.745 19.1439 111.745 19.8862C111.745 20.6284 111.904 21.2115 112.276 21.6887C112.701 22.1658 113.178 22.3779 113.762 22.3779ZM106.278 24.1274V16.6522L108.348 15.698V24.1804H106.278V24.1274ZM101.396 24.1274V17.6595H99.6972V15.645H105.164V17.6595H103.465V24.1274H101.396ZM94.0712 15.645V19.7801C94.0712 20.3633 94.0712 20.8404 94.1243 21.1055C94.2304 22.0068 94.5489 22.4309 95.3981 22.4309C96.2473 22.4309 96.5657 22.0068 96.6719 21.1055C96.725 20.8404 96.725 20.4163 96.725 19.7801V19.197V16.5992L98.7418 15.645V20.1512C98.7418 21.1055 98.6887 21.7417 98.5826 22.2188C98.158 23.9683 96.8311 24.3924 95.345 24.3924C93.8589 24.3924 92.5321 23.9683 92.1075 22.2188C92.0013 21.7947 91.9482 21.1055 91.9482 20.1512V19.25V16.6522L94.0712 15.645ZM39.5632 22.4839C40.147 22.4839 40.6247 22.2718 40.9962 21.7947C41.3678 21.3176 41.5801 20.7344 41.5801 19.9922C41.5801 19.303 41.3678 18.6668 40.9962 18.1897C40.6247 17.7125 40.147 17.4475 39.5632 17.4475C38.9794 17.4475 38.5017 17.7125 38.1302 18.1367C37.7587 18.6138 37.5464 19.197 37.5464 19.9392C37.5464 20.6814 37.7056 21.2645 38.1302 21.7417C38.5017 22.2188 38.9794 22.4839 39.5632 22.4839ZM1.34923 21.4236C1.66768 21.7947 1.98613 22.1128 2.2515 22.3248C2.56995 22.5369 2.83533 22.6429 3.15378 22.6429C3.41915 22.6429 3.68453 22.5369 3.84375 22.3779C4.00298 22.1658 4.10913 21.9537 4.10913 21.7417C4.10913 21.4766 4.05605 21.2645 3.89683 21.1055C3.7376 20.9465 3.36608 20.7874 2.83533 20.6284C2.09228 20.4163 1.56153 20.0982 1.24308 19.7271C0.92463 19.356 0.765405 18.8789 0.765405 18.2427C0.765405 17.4475 1.03078 16.7583 1.50846 16.2281C1.98613 15.698 2.62303 15.4329 3.41915 15.4329C3.84375 15.4329 4.21528 15.4859 4.63988 15.645C5.0114 15.751 5.38293 15.963 5.70138 16.2281L5.06448 17.8716C4.85218 17.6595 4.5868 17.5005 4.32143 17.3414C4.05605 17.2354 3.84375 17.1824 3.57838 17.1824C3.313 17.1824 3.1007 17.2354 2.94148 17.3945C2.78225 17.5535 2.72918 17.7125 2.72918 17.9246C2.72918 18.1367 2.78225 18.2957 2.94148 18.4548C3.04763 18.5608 3.313 18.7198 3.7376 18.8259L3.84375 18.8789C4.69295 19.1439 5.27678 19.409 5.54215 19.7271C5.70138 19.9392 5.8606 20.2042 5.96675 20.4693C6.0729 20.7874 6.12598 21.1055 6.12598 21.4236C6.12598 22.3248 5.8606 23.0671 5.32985 23.5972C4.7991 24.1274 4.10913 24.4454 3.20685 24.4454C2.6761 24.4454 2.19843 24.3394 1.77383 24.1274C1.34923 23.9153 0.92463 23.5972 0.500031 23.1731L1.34923 21.4236ZM8.77973 24.1804V17.6595H7.08133V15.645H12.6011V17.6595H10.9027V24.1804H8.77973ZM16.1041 15.698V19.8331C16.1041 20.4163 16.1041 20.8934 16.1571 21.1585C16.2633 22.0598 16.5817 22.4839 17.4309 22.4839C18.2801 22.4839 18.5986 22.0598 18.7047 21.1585C18.7578 20.5754 18.7578 19.8862 18.7578 19.25V16.6522L20.8277 15.698V20.1512C20.8277 21.1055 20.7747 21.7947 20.6685 22.2188C20.2439 23.9683 18.917 24.3924 17.4309 24.3924C15.9448 24.3924 14.618 23.9683 14.1934 22.2188C14.0872 21.7947 14.0342 21.1055 14.0342 20.1512V19.25V16.5992L16.1041 15.698ZM22.8446 24.1804V15.698H24.4368C25.6045 15.698 26.4537 15.751 26.9314 15.91C27.409 16.0161 27.8336 16.2281 28.2052 16.5462C28.6828 16.9173 29.0544 17.3945 29.3197 17.9776C29.5851 18.5608 29.6913 19.25 29.6913 19.9922C29.6913 20.7344 29.5851 21.4236 29.3197 22.0068C29.0544 22.5899 28.6828 23.0671 28.2052 23.4382C27.8336 23.7032 27.409 23.9153 26.9314 24.0743C26.4537 24.1804 25.7106 24.2334 24.7553 24.2334H24.3838L22.8446 24.1804ZM24.9145 22.2718H25.286C26.0822 22.2718 26.7191 22.0598 27.0906 21.6887C27.4621 21.3176 27.6744 20.7344 27.6744 19.8862C27.6744 19.0909 27.4621 18.4548 27.0906 18.0836C26.7191 17.7125 26.1352 17.5005 25.286 17.5005H24.9145V22.2718ZM31.602 24.1804V16.6522L33.725 15.645V24.1274H31.602V24.1804Z" fill="#222020"/>
</svg>
