<svg width="150" height="50" viewBox="0 0 150 50" fill="none" xmlns="http://www.w3.org/2000/svg">
<rect width="150" height="50" rx="3" fill="#404044"/>
<path d="M31.8713 24.2378C31.8997 22.0327 33.0558 19.9957 34.9345 18.8407C33.7439 17.1403 31.8213 16.1009 29.7465 16.036C27.5637 15.8069 25.4476 17.3422 24.3353 17.3422C23.2014 17.3422 21.4889 16.0588 19.6447 16.0967C17.2183 16.1751 15.011 17.5212 13.8305 19.6426C11.3166 23.9951 13.1917 30.3918 15.5999 33.9101C16.8047 35.6329 18.2128 37.5572 20.0553 37.489C21.8583 37.4142 22.5317 36.3393 24.7081 36.3393C26.8643 36.3393 27.496 37.489 29.3759 37.4456C31.3106 37.4142 32.5296 35.7152 33.6922 33.9761C34.5579 32.7485 35.224 31.3918 35.6659 29.9562C33.3681 28.9843 31.874 26.7328 31.8713 24.2378Z" fill="white"/>
<path d="M28.3207 13.7214C29.3756 12.4551 29.8953 10.8274 29.7694 9.18408C28.1578 9.35335 26.6691 10.1236 25.6 11.3414C24.5443 12.5428 24.0095 14.1147 24.1133 15.7107C25.7465 15.7275 27.2973 14.9944 28.3207 13.7214Z" fill="white"/>
<path fill-rule="evenodd" clip-rule="evenodd" d="M49.4602 32.0496H55.377L56.7966 36.2452H59.3455L53.7412 20.7227H51.1375L45.5332 36.2452H48.0393L49.4602 32.0496ZM54.763 30.1132H50.073L52.3862 23.3041H52.451L54.763 30.1132Z" fill="white"/>
<path fill-rule="evenodd" clip-rule="evenodd" d="M66.7256 36.3637C69.5662 36.3637 71.4485 34.1042 71.4485 30.5873C71.4485 27.0802 69.5552 24.8097 66.6829 24.8097C65.2049 24.762 63.8204 25.5308 63.0794 26.8104H63.0366V24.9281H60.7881V39.9892H63.1111V34.3837H63.1648C63.8743 35.6714 65.2574 36.4405 66.7256 36.3637ZM66.0703 26.7908C67.8769 26.7908 69.061 28.2972 69.061 30.5884H69.0609C69.0609 32.9004 67.8769 34.3958 66.0703 34.3958C64.2954 34.3958 63.1015 32.8687 63.1015 30.5884C63.1015 28.3289 64.2954 26.7908 66.0703 26.7908Z" fill="white"/>
<path fill-rule="evenodd" clip-rule="evenodd" d="M79.1817 36.3637C82.0223 36.3637 83.9052 34.1042 83.9052 30.5873C83.9052 27.0802 82.0113 24.8097 79.1389 24.8097C77.6609 24.762 76.2764 25.5308 75.5354 26.8104H75.4927V24.9281H73.2441V39.9892H75.5671V34.3837H75.6209C76.3304 35.6714 77.7134 36.4405 79.1817 36.3637ZM78.5262 26.7908C80.3328 26.7908 81.5169 28.2972 81.5169 30.5884C81.5169 32.9004 80.3328 34.3958 78.5262 34.3958C76.7513 34.3958 75.5574 32.8687 75.5574 30.5884C75.5574 28.3289 76.7513 26.7908 78.5262 26.7908Z" fill="white"/>
<path d="M92.1358 31.9202C92.3079 33.4595 93.8033 34.4702 95.8467 34.4702C97.8048 34.4702 99.2134 33.4595 99.2134 32.0715C99.2134 30.8667 98.3638 30.1453 96.3521 29.6509L94.3404 29.1663C91.4901 28.4778 90.1668 27.1448 90.1668 24.9817C90.1668 22.3035 92.5008 20.4639 95.8138 20.4639C99.095 20.4639 101.344 22.3035 101.419 24.9817H99.0743C98.9339 23.4326 97.6534 22.4976 95.782 22.4976C93.9107 22.4976 92.6302 23.4436 92.6302 24.8206C92.6302 25.918 93.4481 26.5637 95.4488 27.0581L97.159 27.478C100.344 28.2312 101.666 29.5105 101.666 31.781C101.666 34.685 99.3538 36.5039 95.6746 36.5039C92.2322 36.5039 89.908 34.7277 89.7578 31.9201L92.1358 31.9202Z" fill="white"/>
<path d="M106.683 22.2505V24.9287H108.835V26.7683H106.683V33.0073C106.683 33.9766 107.114 34.4282 108.06 34.4282C108.315 34.4238 108.57 34.4058 108.824 34.3745V36.2031C108.398 36.2826 107.966 36.3186 107.533 36.3105C105.242 36.3105 104.349 35.4499 104.349 33.2551V26.7683H102.703V24.9287H104.349V22.2505H106.683Z" fill="white"/>
<path fill-rule="evenodd" clip-rule="evenodd" d="M115.448 24.7896C112.177 24.7896 110.08 27.0271 110.08 30.5879C110.08 34.1584 112.156 36.3862 115.448 36.3862C118.74 36.3862 120.816 34.1585 120.816 30.5879C120.816 27.0271 118.729 24.7896 115.448 24.7896ZM115.448 26.7031C117.33 26.7031 118.449 28.1448 118.449 30.5874H118.449C118.449 33.0398 117.33 34.4704 115.448 34.4704C113.565 34.4704 112.446 33.0398 112.446 30.5874C112.446 28.1557 113.565 26.7031 115.448 26.7031Z" fill="white"/>
<path d="M122.73 24.928H124.946V26.8543H125C125.309 25.6143 126.445 24.7608 127.722 24.8096C127.99 24.8087 128.257 24.8377 128.518 24.8963V27.0691C128.18 26.9659 127.827 26.9184 127.474 26.9288C126.791 26.901 126.13 27.1732 125.665 27.6738C125.199 28.1744 124.976 28.8534 125.053 29.5325V36.2452H122.73L122.73 24.928Z" fill="white"/>
<path fill-rule="evenodd" clip-rule="evenodd" d="M134.356 36.3862C136.916 36.3862 138.917 34.9763 139.229 32.9219L137.023 32.9219C136.6 33.972 135.537 34.6193 134.41 34.5137C133.565 34.5448 132.747 34.2113 132.164 33.5979C131.582 32.9846 131.291 32.1506 131.365 31.3081V31.1677H139.359V30.3718C139.359 26.9404 137.39 24.7896 134.259 24.7896C131.075 24.7896 129.021 27.0918 129.021 30.6416C129.021 34.1804 131.064 36.3862 134.356 36.3862ZM137.035 29.5453L131.377 29.5453C131.375 28.7812 131.678 28.048 132.219 27.5086C132.76 26.9693 133.495 26.6684 134.259 26.673C135.017 26.6567 135.747 26.9574 136.274 27.5026C136.801 28.0479 137.077 28.7882 137.035 29.5453Z" fill="white"/>
<path d="M47.7986 12.1913H48.7959C49.143 12.2345 49.4923 12.1306 49.7594 11.9048C50.0265 11.679 50.187 11.3517 50.2021 11.0023C50.2021 10.3144 49.6846 9.8701 48.8069 9.8701C48.4515 9.82045 48.0912 9.91653 47.8077 10.1365C47.5243 10.3565 47.3418 10.6818 47.3017 11.0383H46.2067C46.2448 10.3907 46.5503 9.78802 47.05 9.37438C47.5498 8.96074 48.1989 8.77331 48.8422 8.85691C50.3107 8.85691 51.3447 9.67905 51.3447 10.8625C51.3518 11.6795 50.7872 12.3905 49.9897 12.5685V12.6563C50.9448 12.6987 51.6861 13.5047 51.6487 14.4599C51.5801 15.1263 51.2461 15.737 50.722 16.1542C50.1978 16.5714 49.5278 16.76 48.863 16.6773C48.1967 16.7682 47.5221 16.5845 46.9939 16.1683C46.4657 15.7522 46.1292 15.1394 46.0615 14.4703H47.1736C47.2407 15.1838 47.8962 15.6441 48.863 15.6441C49.8298 15.6441 50.4609 15.1271 50.4609 14.3983C50.4609 13.6592 49.8664 13.2039 48.8276 13.2039H47.7986V12.1913Z" fill="white"/>
<path fill-rule="evenodd" clip-rule="evenodd" d="M55.0056 13.2259C53.6677 13.309 52.9121 13.8931 52.9121 14.9062C52.914 15.3866 53.119 15.8438 53.4765 16.1648C53.8339 16.4857 54.3105 16.6405 54.7883 16.5908C55.47 16.6223 56.1158 16.2847 56.479 15.707H56.5669V16.498H57.6375V12.6522C57.6375 11.4632 56.8416 10.7607 55.4304 10.7607C54.1536 10.7607 53.2429 11.3809 53.1294 12.3477H54.2048C54.3293 11.9497 54.7578 11.722 55.3779 11.722C56.1384 11.722 56.5303 12.0577 56.5303 12.6522V13.1381L55.0056 13.2259ZM56.5303 13.9549V14.4255C56.506 14.7842 56.3372 15.1177 56.0624 15.3497C55.7877 15.5816 55.4306 15.6922 55.0728 15.6559C54.4685 15.6559 54.0291 15.3611 54.0291 14.8545C54.0291 14.3583 54.3806 14.0947 55.1558 14.0428L56.5303 13.9549Z" fill="white"/>
<path d="M60.5854 11.8042V16.4978H59.4746V10.8691H63.1807V11.8041L60.5854 11.8042Z" fill="white"/>
<path fill-rule="evenodd" clip-rule="evenodd" d="M67.5872 16.5908C69.0081 16.5908 69.9126 15.4695 69.9126 13.6812C69.9126 11.8923 69.008 10.7759 67.5762 10.776C66.8414 10.7579 66.1586 11.1533 65.8086 11.7995H65.7256V10.8693H64.6562V18.3693H65.7671V15.6453H65.855C66.1993 16.2706 66.875 16.6394 67.5872 16.5908ZM67.2662 11.7739C68.2073 11.7739 68.7701 12.4923 68.7701 13.6813C68.7701 14.8751 68.2073 15.5935 67.2613 15.5935C66.3311 15.5935 65.7464 14.8592 65.7464 13.6861C65.7464 12.5075 66.3312 11.7739 67.2662 11.7739Z" fill="white"/>
<path d="M71.3921 18.5138V17.5574C71.5123 17.5727 71.6335 17.5796 71.7546 17.5781C72.2447 17.6144 72.6835 17.2759 72.7727 16.7926L72.8557 16.5186L70.8184 10.8691H72.0281L73.4393 15.34H73.5271L74.9334 10.8691H76.1114L74.013 16.7304C73.532 18.1 72.9998 18.5394 71.8524 18.5394C71.7596 18.5394 71.4959 18.5291 71.3921 18.5138Z" fill="white"/>
<path d="M76.9766 14.8994H78.0825C78.1912 15.3956 78.6563 15.6544 79.3069 15.6544C80.0466 15.6544 80.5007 15.3285 80.5007 14.8219C80.5007 14.2793 80.093 14.0205 79.3069 14.0205H78.4646V13.1575H79.2922C79.9636 13.1575 80.3054 12.8993 80.3054 12.4287C80.3054 12.0155 79.9746 11.7 79.2922 11.7C78.6709 11.7 78.2168 11.9636 78.1447 12.408H77.0742C77.2407 11.3458 78.2272 10.6126 79.2922 10.7594C80.6301 10.7594 81.3955 11.3643 81.3955 12.3152C81.4084 12.8609 81.0379 13.3413 80.5068 13.4676V13.5554C81.1419 13.6374 81.6151 14.1816 81.6079 14.8219C81.6079 15.8919 80.6973 16.5999 79.3069 16.5999C78.0776 16.5998 77.0791 16.0365 76.9766 14.8994Z" fill="white"/>
<path d="M83.208 16.4978V10.8691H84.3091V14.7406H84.397L86.991 10.8692H88.092V16.4978H86.991V12.6056H86.908L84.3091 16.4978L83.208 16.4978Z" fill="white"/>
<path d="M94.158 11.8041H92.3855V16.4977H91.2735V11.8041H89.501V10.8691H94.158V11.8041Z" fill="white"/>
<path fill-rule="evenodd" clip-rule="evenodd" d="M97.7013 16.6068C98.8015 16.7257 99.8291 16.04 100.141 14.9784L99.0709 14.9783C98.8046 15.4561 98.2761 15.7257 97.733 15.6607C97.3138 15.6658 96.9119 15.4935 96.6264 15.1865C96.3409 14.8794 96.1984 14.466 96.234 14.0482V13.986H100.209V13.5983C100.209 11.8308 99.2626 10.7608 97.6964 10.7608C96.9439 10.7544 96.2257 11.0748 95.7278 11.639C95.2299 12.2032 95.0013 12.9557 95.1012 13.7015C94.9985 14.4453 95.228 15.1966 95.7287 15.756C96.2294 16.3155 96.9507 16.6266 97.7013 16.6068ZM99.0754 13.1655H96.2336C96.2282 12.7772 96.38 12.4032 96.6545 12.1286C96.929 11.854 97.3029 11.702 97.6911 11.7073C98.0739 11.6988 98.4425 11.8523 98.7061 12.13C98.9697 12.4076 99.1038 12.7837 99.0754 13.1655Z" fill="white"/>
<path fill-rule="evenodd" clip-rule="evenodd" d="M104.851 10.8691H107.388C108.489 10.8691 109.135 11.427 109.135 12.3004C109.139 12.8715 108.742 13.3673 108.184 13.4894V13.5772C108.867 13.6204 109.396 14.1909 109.388 14.8749C109.388 15.8569 108.649 16.4978 107.414 16.4978H104.851V10.8691ZM105.952 11.7215V13.179H107.053C107.724 13.179 108.045 12.9208 108.045 12.4447C108.045 12.0059 107.766 11.7215 107.176 11.7215L105.952 11.7215ZM105.952 15.6457V13.9965L107.13 13.9965C107.879 13.9965 108.277 14.2602 108.277 14.8235C108.277 15.3558 107.926 15.6457 107.269 15.6457H105.952Z" fill="white"/>
</svg>
