<svg width="150" height="50" viewBox="0 0 150 50" fill="none" xmlns="http://www.w3.org/2000/svg">
<g id="googleplay">
<g id="googleplay_2">
<rect id="Rectangle 17 Copy 2" width="150" height="50" rx="3" fill="#404044"/>
<g id="Group 9">
<path id="Fill 7" fill-rule="evenodd" clip-rule="evenodd" d="M119.772 36.4255H121.888V22.2403H119.772V36.4255ZM138.845 27.3451L136.417 33.4953H136.344L133.826 27.3451H131.544L135.322 35.9407L133.169 40.7224H135.376L141.199 27.3451H138.845ZM126.836 34.8127C126.142 34.8127 125.175 34.4666 125.175 33.6076C125.175 32.5137 126.379 32.0927 127.419 32.0927C128.351 32.0927 128.789 32.2947 129.355 32.5682C129.19 33.8822 128.058 34.8127 126.836 34.8127ZM127.09 27.0381C125.558 27.0381 123.969 27.7133 123.312 29.2089L125.194 29.9941C125.594 29.2089 126.342 28.9535 127.127 28.9535C128.221 28.9535 129.336 29.6105 129.355 30.7793V30.9246C128.971 30.7056 128.15 30.3776 127.145 30.3776C125.12 30.3776 123.058 31.4908 123.058 33.5707C123.058 35.4691 124.718 36.6924 126.579 36.6924C128.003 36.6924 128.789 36.0535 129.281 35.3046H129.355V36.3996H131.397V30.9609C131.397 28.4429 129.518 27.0381 127.09 27.0381ZM114.006 29.0734H110.995V24.2111H114.006C115.59 24.2111 116.489 25.5217 116.489 26.6416C116.489 27.7412 115.59 29.0734 114.006 29.0734ZM113.952 22.2403H108.878V36.4255H110.996V31.0515H113.952C116.299 31.0515 118.605 29.3516 118.605 26.6453C118.605 23.939 116.299 22.2403 113.952 22.2403ZM86.2844 34.8159C84.8229 34.8159 83.5974 33.5915 83.5974 31.9099C83.5974 30.21 84.8229 28.9664 86.2844 28.9664C87.7301 28.9664 88.8625 30.21 88.8625 31.9099C88.8625 33.5915 87.7301 34.8159 86.2844 34.8159ZM88.7163 28.1405H88.6448C88.1694 27.5732 87.2548 27.0625 86.1019 27.0625C83.6895 27.0625 81.4779 29.1822 81.4779 31.9067C81.4779 34.6119 83.6895 36.7145 86.1019 36.7145C87.2548 36.7145 88.1694 36.2028 88.6448 35.6172H88.7163V36.3128C88.7163 38.159 87.7302 39.1462 86.1394 39.1462C84.8412 39.1462 84.0367 38.2135 83.7076 37.4271L81.8614 38.1953C82.3914 39.4753 83.7995 41.0469 86.1394 41.0469C88.6255 41.0469 90.7282 39.5842 90.7282 36.0201V27.3542H88.7163V28.1405ZM92.1912 36.4248H94.3112V22.2385H92.1912V36.4248ZM97.4385 31.7441C97.3829 29.8798 98.8819 28.9289 99.9599 28.9289C100.801 28.9289 101.514 29.3487 101.752 29.9524L97.4385 31.7441ZM104.019 30.1331C103.617 29.0551 102.391 27.0625 99.887 27.0625C97.4008 27.0625 95.3356 29.0177 95.3356 31.8885C95.3356 34.5937 97.3826 36.7145 100.125 36.7145C102.337 36.7145 103.617 35.3619 104.147 34.5756L102.501 33.4794C101.952 34.2828 101.203 34.8127 100.125 34.8127C99.0461 34.8127 98.2779 34.3191 97.7843 33.3512L104.239 30.6823L104.019 30.1331ZM52.6059 28.5466V30.5948H57.5045C57.3581 31.7465 56.9746 32.5874 56.3902 33.1729C55.6765 33.8855 54.561 34.6707 52.6059 34.6707C49.5898 34.6707 47.2307 32.2401 47.2307 29.224C47.2307 26.2068 49.5898 23.7762 52.6059 23.7762C54.232 23.7762 55.4212 24.4151 56.2983 25.2377L57.7428 23.7944C56.5184 22.6245 54.8901 21.728 52.6059 21.728C48.4744 21.728 45.001 25.0925 45.001 29.224C45.001 33.3556 48.4744 36.7189 52.6059 36.7189C54.8356 36.7189 56.5184 35.9881 57.8336 34.6162C59.1873 33.2636 59.6072 31.3618 59.6072 29.8266C59.6072 29.3511 59.5709 28.9131 59.4971 28.5466H52.6059ZM65.1759 34.8159C63.7132 34.8159 62.4526 33.6097 62.4526 31.8917C62.4526 30.1544 63.7132 28.9664 65.1759 28.9664C66.6386 28.9664 67.9004 30.1544 67.9004 31.8917C67.9004 33.6097 66.6386 34.8159 65.1759 34.8159ZM65.1763 27.0625C62.5074 27.0625 60.3322 29.0914 60.3322 31.8885C60.3322 34.6663 62.5074 36.7145 65.1763 36.7145C67.8452 36.7145 70.0204 34.6663 70.0204 31.8885C70.0204 29.0914 67.8452 27.0625 65.1763 27.0625ZM75.7443 34.8159C74.2827 34.8159 73.022 33.6097 73.022 31.8917C73.022 30.1544 74.2827 28.9664 75.7443 28.9664C77.2069 28.9664 78.4699 30.1544 78.4699 31.8917C78.4699 33.6097 77.2069 34.8159 75.7443 34.8159ZM75.7435 27.0625C73.0758 27.0625 70.8994 29.0914 70.8994 31.8885C70.8994 34.6663 73.0758 36.7145 75.7435 36.7145C78.4135 36.7145 80.5888 34.6663 80.5888 31.8885C80.5888 29.0914 78.4135 27.0625 75.7435 27.0625Z" fill="white"/>
<path id="Union" fill-rule="evenodd" clip-rule="evenodd" d="M51.5489 9.15674H46.3811L46.3811 13.0783L46.3811 13.0803C46.3934 14.3626 46.1178 15.2284 45.6079 15.7355H44.7852V18.6748H46.0856V17.0823H51.041V18.6748H52.3415V15.7355H51.5489V9.15674ZM56.9278 9.15674C55.8304 9.15674 54.9057 9.56042 54.1681 10.3623C53.4313 11.1619 53.0662 12.1418 53.0662 13.287C53.0662 14.4322 53.4313 15.4108 54.168 16.2104C54.9056 17.0136 55.8304 17.4173 56.9278 17.4173C58.0253 17.4173 58.95 17.0135 59.6887 16.2105C60.4241 15.411 60.7906 14.4325 60.7906 13.287C60.7906 12.1472 60.4225 11.1699 59.6839 10.3671C58.9421 9.56221 58.0201 9.15674 56.9278 9.15674ZM65.2496 9.15674C64.1466 9.15674 63.2144 9.55425 62.466 10.3451C61.7176 11.1358 61.3478 12.122 61.3478 13.287C61.3478 14.4532 61.7177 15.4396 62.4661 16.2303C63.2145 17.0198 64.1466 17.4173 65.2496 17.4173C65.8543 17.4173 66.4207 17.2906 66.9407 17.0339C67.4588 16.78 67.8886 16.4323 68.2338 15.9959L68.3476 15.8521L67.4205 14.8726L67.2657 15.0593C66.6992 15.7426 66.031 16.0705 65.2496 16.0705C64.534 16.0705 63.9369 15.8175 63.4464 15.3085C62.9588 14.8036 62.7075 14.136 62.7075 13.287C62.7075 12.4381 62.9591 11.7714 63.4467 11.2664C63.937 10.7565 64.5338 10.5048 65.2496 10.5048C66.0173 10.5048 66.6115 10.7934 67.0506 11.3725L67.2012 11.5711L68.1433 10.6071L68.0234 10.4604C67.315 9.59376 66.3828 9.15674 65.2496 9.15674ZM73.7528 9.15674H68.4466V10.5035H70.4293V17.0823H71.77V10.5035H73.7528V9.15674ZM76.2705 9.15674H74.7306L77.212 14.9107L76.9903 15.4244C76.8962 15.6421 76.8059 15.7613 76.7338 15.8158C76.6711 15.8635 76.5606 15.9017 76.3733 15.9017C76.2504 15.9017 76.1294 15.8686 76.0072 15.7966L75.7633 15.6528L75.406 16.9902L75.5729 17.0639C75.8448 17.184 76.109 17.2498 76.365 17.2498C76.7796 17.2498 77.1488 17.1219 77.4637 16.8665C77.7749 16.6141 78.0232 16.245 78.2171 15.778L81.0285 9.15674H79.4893L77.8985 13.1515L76.2705 9.15674ZM87.5035 9.15674H81.9393V17.0823H83.28V10.5035H86.1616V17.0823H87.5035V9.15674ZM89.7871 9.15674H88.4464V17.0823H89.7871V13.6985H92.9076V17.0823H94.2483V9.15674H92.9076V12.3717H89.7871V9.15674ZM98.8145 9.15674C97.7171 9.15674 96.7924 9.56042 96.0548 10.3623C95.318 11.1619 94.9529 12.1418 94.9529 13.287C94.9529 14.4322 95.318 15.4108 96.0547 16.2104C96.7923 17.0136 97.717 17.4173 98.8145 17.4173C99.912 17.4173 100.837 17.0135 101.575 16.2105C102.311 15.411 102.677 14.4325 102.677 13.287C102.677 12.1472 102.309 11.1699 101.571 10.3671C100.829 9.56221 99.9068 9.15674 98.8145 9.15674ZM107.902 9.15674H105.121V17.0823H108.042C108.68 17.0823 109.237 16.858 109.702 16.4157C110.172 15.9686 110.408 15.4035 110.408 14.7333C110.408 14.2861 110.281 13.8848 110.03 13.5391C109.856 13.3027 109.648 13.1134 109.406 12.9726C109.59 12.8366 109.746 12.6689 109.873 12.469C110.074 12.1597 110.171 11.804 110.171 11.412C110.171 10.7707 109.945 10.2277 109.494 9.79695C109.048 9.37384 108.515 9.15674 107.902 9.15674ZM109.873 12.469L109.874 12.468L109.692 12.3545L109.872 12.4699L109.873 12.469ZM55.1563 11.276C55.6417 10.7561 56.2275 10.5004 56.9275 10.5004C57.6263 10.5004 58.2134 10.7564 58.6988 11.2762C59.1822 11.7926 59.4306 12.4572 59.4306 13.2839C59.4306 14.1104 59.1823 14.7738 58.6987 15.2917C58.2134 15.8114 57.6265 16.0661 56.9275 16.0661C56.2273 16.0661 55.6416 15.8114 55.1563 15.2917C54.6738 14.7738 54.4255 14.1103 54.4255 13.2839C54.4255 12.4572 54.674 11.7925 55.1563 11.276ZM97.0424 11.276C97.5279 10.7561 98.1137 10.5004 98.8136 10.5004C99.5124 10.5004 100.1 10.7564 100.585 11.2762C101.068 11.7926 101.317 12.4572 101.317 13.2839C101.317 14.1104 101.068 14.7738 100.585 15.2917C100.1 15.8114 99.5127 16.0661 98.8136 16.0661C98.1135 16.0661 97.5278 15.8114 97.0426 15.2919C96.56 14.774 96.3117 14.1104 96.3117 13.2839C96.3117 12.4572 96.5601 11.7925 97.0424 11.276ZM47.7205 13.0747V10.5025H50.207V15.7332H47.1993C47.5624 15.0128 47.7329 14.1224 47.7205 13.0747ZM106.461 12.3707V10.5025H107.943C108.214 10.5025 108.417 10.5964 108.575 10.7829L108.576 10.7837C108.748 10.9846 108.827 11.199 108.827 11.431C108.827 11.6609 108.746 11.8764 108.568 12.0838C108.404 12.2736 108.189 12.3707 107.902 12.3707H106.461ZM106.461 15.7339V13.697H108.041C108.346 13.697 108.581 13.8021 108.762 14.0067C108.957 14.2288 109.046 14.4603 109.046 14.7105C109.046 14.9631 108.958 15.1979 108.769 15.4208L108.768 15.4216C108.593 15.6304 108.37 15.7339 108.081 15.7339H106.461Z" fill="white"/>
<g id="google-play-badge">
<g id="Group">
<path id="Shape" d="M12.9865 9.6792C12.6671 9.99864 12.5 10.5549 12.5 11.1938V34.7262C12.5 35.3651 12.713 35.8975 13.0324 36.217L13.1389 36.3234L26.2361 23.1197V23.0133V22.9068L13.0324 9.70307L12.9865 9.6792Z" fill="url(#paint0_linear)"/>
<path id="Shape_2" d="M30.7091 27.4864L26.2412 23.0084V22.9019V22.7954L30.6008 18.4663L30.7339 18.5406L35.87 21.496C37.3608 22.3479 37.4995 23.5979 36.0088 24.4498L30.8582 27.4011L30.7091 27.4864Z" fill="url(#paint1_linear)"/>
<path id="Shape_3" d="M30.7082 27.4859L26.2359 23.0137L13.0322 36.2174C13.5646 36.7498 14.31 36.7498 15.2683 36.3239L30.7082 27.4859Z" fill="url(#paint2_linear)"/>
<path id="Shape_4" d="M30.6759 18.5067L15.1636 9.60872C14.3117 9.07632 13.4064 9.15609 12.9805 9.68849L26.3415 23.0437L30.6759 18.5067Z" fill="url(#paint3_linear)"/>
</g>
<g id="Group_2">
<path id="Shape_5" opacity="0.2" d="M30.8146 27.3755L15.2683 36.107C14.4165 36.6394 13.6711 36.5329 13.1387 36.107L13.0322 36.2135L13.1387 36.3199C13.6711 36.7459 14.4165 36.8523 15.2683 36.3199L30.8146 27.3755Z" fill="black"/>
<path id="Shape_6" opacity="0.12" d="M13.0322 36.1079C12.7129 35.7885 12.5 35.2561 12.5 34.6172V34.7237C12.5 35.3626 12.7129 35.895 13.0322 36.2144V36.1079Z" fill="black"/>
</g>
<path id="Shape_7" opacity="0.12" d="M35.9266 24.3984L30.6025 27.3799L30.709 27.4864L35.9266 24.5049C36.672 24.079 36.9914 23.5466 36.9914 23.0142C36.9914 23.4401 36.672 23.9725 35.9266 24.3984Z" fill="black"/>
<path id="Shape_8" opacity="0.25" d="M15.162 9.80763L35.9259 21.6271C36.5648 22.053 36.9907 22.4789 36.9907 23.0113C36.9907 22.4789 36.6713 21.9465 35.9259 21.5206L15.162 9.59467C13.6713 8.74281 12.5 9.48818 12.5 11.1919V11.2984C12.5 9.59467 13.6713 8.95578 15.162 9.80763Z" fill="white"/>
</g>
</g>
</g>
</g>
<defs>
<linearGradient id="paint0_linear" x1="20.4832" y1="-6.40616" x2="-0.649545" y2="-0.784487" gradientUnits="userSpaceOnUse">
<stop stop-color="#00A0FF"/>
<stop offset="0.00657445" stop-color="#00A1FF"/>
<stop offset="0.2601" stop-color="#00BEFF"/>
<stop offset="0.5122" stop-color="#00D2FF"/>
<stop offset="0.7604" stop-color="#00DFFF"/>
<stop offset="1" stop-color="#00E3FF"/>
</linearGradient>
<linearGradient id="paint1_linear" x1="37.9252" y1="12.1829" x2="12.1342" y2="12.1829" gradientUnits="userSpaceOnUse">
<stop stop-color="#FFE000"/>
<stop offset="0.4087" stop-color="#FFBD00"/>
<stop offset="0.7754" stop-color="#FFA500"/>
<stop offset="1" stop-color="#FF9C00"/>
</linearGradient>
<linearGradient id="paint2_linear" x1="12.5891" y1="16.0808" x2="-4.35961" y2="44.6377" gradientUnits="userSpaceOnUse">
<stop stop-color="#FF3A44"/>
<stop offset="1" stop-color="#C31162"/>
</linearGradient>
<linearGradient id="paint3_linear" x1="2.64099" y1="6.0691" x2="10.3707" y2="18.7983" gradientUnits="userSpaceOnUse">
<stop stop-color="#32A071"/>
<stop offset="0.0685" stop-color="#2DA771"/>
<stop offset="0.4762" stop-color="#15CF74"/>
<stop offset="0.8009" stop-color="#06E775"/>
<stop offset="1" stop-color="#00F076"/>
</linearGradient>
</defs>
</svg>
