<svg width="555" height="333" viewBox="0 0 555 333" fill="none" xmlns="http://www.w3.org/2000/svg">
<mask id="mask0" mask-type="alpha" maskUnits="userSpaceOnUse" x="0" y="0" width="555" height="333">
<rect width="555" height="333" fill="#C4C4C4"/>
</mask>
<g mask="url(#mask0)" class="svg">
<path fill-rule="evenodd" clip-rule="evenodd" d="M11.8525 290.803H21.4427V300.393H11.8525V290.803ZM11.8526 307.107H21.4427V316.697H11.8526V307.107ZM21.4427 323.41H11.8526V333H21.4427V323.41Z" fill="url(#paint0_linear)"/>
<path fill-rule="evenodd" clip-rule="evenodd" d="M77.0654 290.803H86.6556V300.393H77.0654V290.803ZM77.0654 307.107H86.6556V316.697H77.0654V307.107ZM86.6556 323.41H77.0654V333H86.6556V323.41Z" fill="url(#paint1_linear)"/>
<path fill-rule="evenodd" clip-rule="evenodd" d="M142.279 225.59H151.869V235.18H142.279V225.59ZM142.279 241.893H151.869V251.483H142.279V241.893ZM151.869 258.196H142.279V267.787H151.869V258.196ZM142.279 274.5H151.869V284.09H142.279V274.5ZM151.869 290.803H142.279V300.393H151.869V290.803ZM142.279 307.106H151.869V316.696H142.279V307.106ZM151.869 323.41H142.279V333H151.869V323.41Z" fill="url(#paint2_linear)"/>
<path fill-rule="evenodd" clip-rule="evenodd" d="M207.492 95.1641H217.082V104.754H207.492V95.1641ZM207.492 111.467H217.082V121.058H207.492V111.467ZM217.082 127.771H207.492V137.361H217.082V127.771ZM207.492 144.074H217.082V153.664H207.492V144.074ZM217.082 160.377H207.492V169.967H217.082V160.377ZM207.492 176.681H217.082V186.271H207.492V176.681ZM217.082 192.984H207.492V202.574H217.082V192.984ZM207.492 209.287H217.082V218.877H207.492V209.287ZM217.082 225.59H207.492V235.181H217.082V225.59ZM207.492 241.894H217.082V251.484H207.492V241.894ZM217.082 258.197H207.492V267.787H217.082V258.197ZM207.492 274.5H217.082V284.09H207.492V274.5ZM217.082 290.804H207.492V300.394H217.082V290.804ZM207.492 307.107H217.082V316.697H207.492V307.107ZM217.082 323.41H207.492V333H217.082V323.41Z" fill="url(#paint3_linear)"/>
<path fill-rule="evenodd" clip-rule="evenodd" d="M272.705 29.9507H282.295V39.5408H272.705V29.9507ZM272.705 46.2539H282.295V55.844H272.705V46.2539ZM282.295 62.5571H272.705V72.1473H282.295V62.5571ZM272.705 78.8604H282.295V88.4506H272.705V78.8604ZM282.295 95.1637H272.705V104.754H282.295V95.1637ZM272.705 111.467H282.295V121.057H272.705V111.467ZM282.295 127.77H272.705V137.36H282.295V127.77ZM272.705 144.074H282.295V153.664H272.705V144.074ZM282.295 160.377H272.705V169.967H282.295V160.377ZM272.705 176.68H282.295V186.27H272.705V176.68ZM282.295 192.983H272.705V202.574H282.295V192.983ZM272.705 209.287H282.295V218.877H272.705V209.287ZM282.295 225.59H272.705V235.18H282.295V225.59ZM272.705 241.893H282.295V251.483H272.705V241.893ZM282.295 258.196H272.705V267.787H282.295V258.196ZM272.705 274.5H282.295V284.09H272.705V274.5ZM282.295 290.803H272.705V300.393H282.295V290.803ZM272.705 307.106H282.295V316.696H272.705V307.106ZM282.295 323.41H272.705V333H282.295V323.41Z" fill="url(#paint4_linear)"/>
<path fill-rule="evenodd" clip-rule="evenodd" d="M347.508 46.2539H337.918V55.8441H347.508V46.2539ZM347.508 62.5571H337.918V72.1473H347.508V62.5571ZM337.918 78.8604H347.508V88.4506H337.918V78.8604ZM347.508 95.1637H337.918V104.754H347.508V95.1637ZM337.918 111.467H347.508V121.057H337.918V111.467ZM347.508 127.77H337.918V137.36H347.508V127.77ZM337.918 144.074H347.508V153.664H337.918V144.074ZM347.508 160.377H337.918V169.967H347.508V160.377ZM337.918 176.68H347.508V186.27H337.918V176.68ZM347.508 192.983H337.918V202.574H347.508V192.983ZM337.918 209.287H347.508V218.877H337.918V209.287ZM347.508 225.59H337.918V235.18H347.508V225.59ZM337.918 241.893H347.508V251.483H337.918V241.893ZM347.508 258.196H337.918V267.787H347.508V258.196ZM337.918 274.5H347.508V284.09H337.918V274.5ZM347.508 290.803H337.918V300.393H347.508V290.803ZM337.918 307.106H347.508V316.696H337.918V307.106ZM347.508 323.41H337.918V333H347.508V323.41Z" fill="url(#paint5_linear)"/>
<path fill-rule="evenodd" clip-rule="evenodd" d="M412.722 144.074H403.131V153.664H412.722V144.074ZM412.722 160.377H403.131V169.967H412.722V160.377ZM403.131 176.68H412.722V186.27H403.131V176.68ZM412.722 192.984H403.131V202.574H412.722V192.984ZM403.131 209.287H412.722V218.877H403.131V209.287ZM412.722 225.59H403.131V235.18H412.722V225.59ZM403.131 241.893H412.722V251.484H403.131V241.893ZM412.722 258.197H403.131V267.787H412.722V258.197ZM403.131 274.5H412.722V284.09H403.131V274.5ZM412.722 290.803H403.131V300.393H412.722V290.803ZM403.131 307.107H412.722V316.697H403.131V307.107ZM412.722 323.41H403.131V333H412.722V323.41Z" fill="url(#paint6_linear)"/>
<path fill-rule="evenodd" clip-rule="evenodd" d="M477.934 274.5H468.344V284.09H477.934V274.5ZM477.934 290.803H468.344V300.393H477.934V290.803ZM468.344 307.107H477.934V316.697H468.344V307.107ZM477.934 323.41H468.344V333H477.934V323.41Z" fill="url(#paint7_linear)"/>
<path fill-rule="evenodd" clip-rule="evenodd" d="M533.558 225.59H543.148V235.18H533.558V225.59ZM533.558 241.893H543.148V251.483H533.558V241.893ZM543.148 258.196H533.558V267.787H543.148V258.196ZM533.558 274.5H543.148V284.09H533.558V274.5ZM543.148 290.803H533.558V300.393H543.148V290.803ZM533.558 307.106H543.148V316.696H533.558V307.106ZM543.148 323.41H533.558V333H543.148V323.41Z" fill="url(#paint8_linear)"/>
</g>
<defs>
<linearGradient id="paint0_linear" x1="16.6476" y1="290.803" x2="16.6476" y2="333" gradientUnits="userSpaceOnUse">
<stop stop-color="#848587"/>
<stop offset="1" stop-color="#848587" stop-opacity="0"/>
</linearGradient>
<linearGradient id="paint1_linear" x1="81.8605" y1="290.803" x2="81.8605" y2="333" gradientUnits="userSpaceOnUse">
<stop stop-color="#848587"/>
<stop offset="1" stop-color="#848587" stop-opacity="0"/>
</linearGradient>
<linearGradient id="paint2_linear" x1="147.074" y1="225.59" x2="147.074" y2="333" gradientUnits="userSpaceOnUse">
<stop stop-color="#848587"/>
<stop offset="1" stop-color="#848587" stop-opacity="0"/>
</linearGradient>
<linearGradient id="paint3_linear" x1="212.287" y1="95.1641" x2="212.287" y2="333" gradientUnits="userSpaceOnUse">
<stop stop-color="#848587"/>
<stop offset="1" stop-color="#848587" stop-opacity="0"/>
</linearGradient>
<linearGradient id="paint4_linear" x1="277.5" y1="29.9507" x2="277.5" y2="333" gradientUnits="userSpaceOnUse">
<stop stop-color="#848587"/>
<stop offset="1" stop-color="#848587" stop-opacity="0"/>
</linearGradient>
<linearGradient id="paint5_linear" x1="342.713" y1="46.2539" x2="342.713" y2="333" gradientUnits="userSpaceOnUse">
<stop stop-color="#848587"/>
<stop offset="1" stop-color="#848587" stop-opacity="0"/>
</linearGradient>
<linearGradient id="paint6_linear" x1="407.926" y1="144.074" x2="407.926" y2="333" gradientUnits="userSpaceOnUse">
<stop stop-color="#848587"/>
<stop offset="1" stop-color="#848587" stop-opacity="0"/>
</linearGradient>
<linearGradient id="paint7_linear" x1="473.139" y1="274.5" x2="473.139" y2="333" gradientUnits="userSpaceOnUse">
<stop stop-color="#848587"/>
<stop offset="1" stop-color="#848587" stop-opacity="0"/>
</linearGradient>
<linearGradient id="paint8_linear" x1="538.353" y1="225.59" x2="538.353" y2="333" gradientUnits="userSpaceOnUse">
<stop stop-color="#848587"/>
<stop offset="1" stop-color="#848587" stop-opacity="0"/>
</linearGradient>
</defs>
</svg>
